<svg id="9b3f2432-e519-41da-924d-7d29c8f5260f" data-name="Layer 1" xmlns="http://www.w3.org/2000/svg" width="100" height="100" viewBox="0 0 100 100"><title>apple-touch-iconArtboard 4</title><path d="M35.21,40.86H20.69V68.49q0,3.79,1.79,5.09a8,8,0,0,0,4.82,1.3,23.55,23.55,0,0,0,4.6-.49,31.55,31.55,0,0,0,4.28-1.14l1.73,8.23a33.61,33.61,0,0,1-5.58,1.57,35.51,35.51,0,0,1-7.21.7q-8.24,0-11.86-3.41T9.64,70.22V40.86H1.84V32.63h7.8V16.49H20.69V32.63H35.21Z" fill="#f0f"/><path d="M50.05,44.11A5.92,5.92,0,0,1,54.5,45.9a6.48,6.48,0,0,1,1.73,4.71,6.34,6.34,0,0,1-1.73,4.6A5.92,5.92,0,0,1,50.05,57a6,6,0,0,1-4.55-1.79,6.33,6.33,0,0,1-1.73-4.6A6.48,6.48,0,0,1,45.5,45.9,6,6,0,0,1,50.05,44.11Zm0,27.63a5.92,5.92,0,0,1,4.44,1.79,7,7,0,0,1,0,9.21,5.92,5.92,0,0,1-4.44,1.79,6,6,0,0,1-4.55-1.79,7,7,0,0,1,0-9.21A6,6,0,0,1,50.05,71.74Z" fill="#f0f"/><path d="M95.13,40.86H80.61V68.49q0,3.79,1.79,5.09a8,8,0,0,0,4.82,1.3,23.55,23.55,0,0,0,4.6-.49,31.55,31.55,0,0,0,4.28-1.14l1.73,8.23a33.61,33.61,0,0,1-5.58,1.57,35.51,35.51,0,0,1-7.21.7q-8.24,0-11.86-3.41T69.56,70.22V40.86h-7.8V32.63h7.8V16.49H80.61V32.63H95.13Z" fill="#f0f"/></svg>